<mxfile host="app.diagrams.net" modified="2023-11-25T23:28:44.703Z" agent="Mozilla/5.0 (Windows NT 10.0; Win64; x64) AppleWebKit/537.36 (KHTML, like Gecko) Chrome/119.0.0.0 Safari/537.36" etag="dj2YbPOfcVPLVSPlBgI9" version="22.1.4" type="github">
  <diagram name="Page-1" id="UUDRurHwhnq8rf0NVVxG">
    <mxGraphModel dx="1227" dy="833" grid="1" gridSize="10" guides="1" tooltips="1" connect="1" arrows="1" fold="1" page="1" pageScale="1" pageWidth="1100" pageHeight="1700" math="0" shadow="0">
      <root>
        <mxCell id="0" />
        <mxCell id="1" parent="0" />
        <mxCell id="eYxbgSnuCOrrsLbzjF7Z-1" value="" style="rounded=0;whiteSpace=wrap;html=1;fillColor=none;" vertex="1" parent="1">
          <mxGeometry x="30" y="120" width="890" height="700" as="geometry" />
        </mxCell>
        <mxCell id="eYxbgSnuCOrrsLbzjF7Z-2" value="" style="rounded=0;whiteSpace=wrap;html=1;" vertex="1" parent="1">
          <mxGeometry x="80" y="310" width="110" height="290" as="geometry" />
        </mxCell>
        <mxCell id="eYxbgSnuCOrrsLbzjF7Z-3" value="" style="shape=actor;whiteSpace=wrap;html=1;" vertex="1" parent="1">
          <mxGeometry x="122.5" y="240" width="25" height="30" as="geometry" />
        </mxCell>
        <mxCell id="eYxbgSnuCOrrsLbzjF7Z-4" value="" style="sketch=0;outlineConnect=0;fontColor=#232F3E;gradientColor=none;fillColor=#232F3D;strokeColor=none;dashed=0;verticalLabelPosition=bottom;verticalAlign=top;align=center;html=1;fontSize=12;fontStyle=0;aspect=fixed;pointerEvents=1;shape=mxgraph.aws4.mobile_client;" vertex="1" parent="1">
          <mxGeometry x="122.27" y="500" width="25.23" height="48" as="geometry" />
        </mxCell>
        <mxCell id="eYxbgSnuCOrrsLbzjF7Z-5" value="" style="sketch=0;pointerEvents=1;shadow=0;dashed=0;html=1;strokeColor=none;fillColor=#505050;labelPosition=center;verticalLabelPosition=bottom;verticalAlign=top;outlineConnect=0;align=center;shape=mxgraph.office.devices.laptop;" vertex="1" parent="1">
          <mxGeometry x="105.88" y="340" width="58" height="34" as="geometry" />
        </mxCell>
      </root>
    </mxGraphModel>
  </diagram>
</mxfile>
